<svg width="353" height="150" viewBox="0 0 353 150" fill="none" xmlns="http://www.w3.org/2000/svg">
<g clip-path="url(#clip0_153_1716)">
<path d="M138.129 48.5683C136.342 47.9534 134.538 47.3837 132.722 46.8598C133.027 45.6098 133.308 44.3749 133.557 43.1617C137.651 23.24 134.975 7.19067 125.834 1.90646C117.07 -3.15933 102.737 2.12291 88.261 14.7525C86.8344 15.9994 85.4394 17.2823 84.0774 18.5999C83.1657 17.7237 82.2378 16.8646 81.2943 16.0229C66.1231 2.51897 50.9165 -3.17248 41.7854 2.12686C33.0291 7.20844 30.4362 22.2959 34.1217 41.1762C34.4884 43.0461 34.9024 44.9063 35.3633 46.7551C33.2108 47.3683 31.1338 48.0209 29.146 48.7157C11.359 54.9328 0 64.6755 0 74.7815C0 85.219 12.1944 95.688 30.7204 102.036C32.2223 102.549 33.7367 103.024 35.2623 103.46C34.7668 105.452 34.327 107.456 33.9432 109.472C30.4297 128.025 33.1734 142.756 41.9062 147.805C50.9257 153.02 66.064 147.66 80.8041 134.743C81.9993 133.692 83.1682 132.613 84.3098 131.504C85.7847 132.931 87.299 134.316 88.851 135.658C103.13 147.975 117.231 152.949 125.955 147.885C134.966 142.656 137.895 126.831 134.093 107.578C133.793 106.069 133.457 104.568 133.086 103.076C134.149 102.76 135.192 102.435 136.209 102.097C155.469 95.7005 168 85.3584 168 74.7815C168 64.6387 156.274 54.8301 138.129 48.5683V48.5683ZM133.952 95.2683C133.034 95.5729 132.091 95.867 131.131 96.1532C129.004 89.4052 126.135 82.2301 122.624 74.8163C125.974 67.5795 128.733 60.4959 130.8 53.792C132.519 54.2907 134.186 54.8163 135.794 55.3709C151.34 60.7367 160.823 68.669 160.823 74.7815C160.823 81.292 150.582 89.744 133.952 95.2683V95.2683ZM127.053 108.975C128.734 117.488 128.973 125.185 127.86 131.203C126.86 136.61 124.848 140.215 122.359 141.659C117.065 144.731 105.743 140.738 93.532 130.204C92.0885 128.956 90.6799 127.668 89.3077 126.342C94.0419 121.152 98.7728 115.118 103.39 108.417C111.512 107.695 119.185 106.513 126.143 104.901C126.478 106.251 126.782 107.61 127.053 108.975V108.975ZM57.2749 141.128C52.1023 142.959 47.9824 143.012 45.4919 141.572C40.1927 138.508 37.9897 126.68 40.9946 110.814C41.3518 108.94 41.7608 107.075 42.2212 105.223C49.1026 106.749 56.7197 107.847 64.8605 108.508C69.5093 115.066 74.3767 121.093 79.2822 126.37C78.2397 127.382 77.1726 128.367 76.0817 129.326C69.5632 135.037 63.0315 139.09 57.2749 141.128V141.128ZM33.0422 95.2282C24.8502 92.4209 18.0849 88.7729 13.4479 84.792C9.28069 81.215 7.17741 77.663 7.17741 74.7815C7.17741 68.6486 16.2973 60.8262 31.5085 55.5098C33.3546 54.865 35.2866 54.2565 37.2914 53.6854C39.394 60.5407 42.1516 67.7084 45.4794 74.9565C42.1083 82.3117 39.3113 89.594 37.1884 96.5302C35.7959 96.1303 34.4134 95.6962 33.0422 95.2282V95.2282ZM41.1653 39.794C38.008 23.6183 40.1047 11.4163 45.3817 8.35383C51.0018 5.09199 63.4298 9.74265 76.5292 21.4032C77.3834 22.1653 78.2238 22.9428 79.0499 23.7354C74.1687 28.99 69.3459 34.9723 64.7384 41.4907C56.8372 42.2249 49.2739 43.4038 42.3202 44.9834C41.8918 43.2638 41.5067 41.5337 41.1653 39.7946V39.794ZM113.633 57.7334C111.991 54.8893 110.287 52.081 108.524 49.3104C113.884 49.99 119.02 50.892 123.843 51.9946C122.395 56.6473 120.591 61.5111 118.466 66.4979C116.914 63.5445 115.302 60.6224 113.633 57.7334V57.7334ZM84.0807 28.8775C87.3908 32.4729 90.7062 36.4867 93.9671 40.842C87.3521 40.5288 80.7261 40.5275 74.111 40.838C77.3752 36.5229 80.7188 32.5144 84.0807 28.8775ZM54.3388 57.7828C52.6905 60.6485 51.1092 63.5523 49.5961 66.492C47.5066 61.5229 45.7183 56.6367 44.2582 51.9183C49.0514 50.8433 54.1629 49.9644 59.4891 49.2973C57.7063 52.0847 55.9891 54.9138 54.3388 57.7821V57.7828ZM59.642 100.778C54.1393 100.162 48.951 99.3282 44.1591 98.2821C45.6422 93.4795 47.4698 88.4894 49.6046 83.4137C51.1237 86.3555 52.7116 89.2612 54.367 92.1282C56.0693 95.0755 57.832 97.9624 59.642 100.778ZM84.2789 121.192C80.8769 117.513 77.4841 113.443 74.1707 109.065C77.3876 109.191 80.6669 109.256 84 109.256C87.4243 109.256 90.8093 109.179 94.141 109.03C90.8696 113.487 87.5667 117.563 84.2789 121.192ZM118.534 83.1545C120.78 88.2861 122.672 93.2499 124.175 97.9703C119.304 99.0848 114.045 99.9821 108.504 100.649C110.279 97.8266 111.999 94.9694 113.661 92.0788C115.351 89.1407 116.976 86.1651 118.534 83.1545V83.1545ZM107.445 88.4841C104.9 92.9159 102.212 97.2636 99.3851 101.52C94.2648 101.884 89.1332 102.064 84 102.062C78.7717 102.062 73.6864 101.899 68.7894 101.58C65.889 97.3333 63.1498 92.978 60.5778 88.5236H60.5784C58.0185 84.0927 55.6274 79.566 53.4102 74.9532C55.6218 70.3393 58.0056 65.8104 60.5568 61.3762L60.5561 61.3769C63.1063 56.9415 65.8236 52.6048 68.7022 48.3762C73.6982 47.9973 78.8215 47.7999 83.9993 47.7999H84C89.2014 47.7999 94.3313 47.9992 99.3261 48.3808C102.176 52.6031 104.876 56.9248 107.421 61.338C109.981 65.7625 112.396 70.2693 114.663 74.8512C112.419 79.48 110.011 84.0272 107.445 88.4841V88.4841ZM122.25 8.13936C127.875 11.392 130.063 24.5084 126.528 41.7091C126.303 42.8065 126.049 43.9242 125.774 45.0578C118.803 43.4446 111.234 42.2453 103.31 41.4999C98.6941 34.9098 93.9107 28.9183 89.1089 23.7315C90.3674 22.5154 91.6558 21.3308 92.9729 20.1788C105.376 9.35844 116.968 5.08607 122.25 8.13936V8.13936ZM84 59.742C92.2852 59.742 99.0019 66.4755 99.0019 74.7815C99.0019 83.0874 92.2852 89.8209 84 89.8209C75.7148 89.8209 68.9981 83.0874 68.9981 74.7815C68.9981 66.4755 75.7148 59.742 84 59.742V59.742Z" fill="#48E3FF"/>
</g>
<g clip-path="url(#clip1_153_1716)">
<path d="M303.552 104.344C309.387 103.743 313.813 98.7363 313.612 92.7277C313.411 86.7197 308.381 81.9129 302.345 81.9129H301.943C295.705 82.1133 290.876 87.3203 291.078 93.5287C291.279 96.533 292.486 99.1365 294.297 100.939C287.456 114.358 276.994 124.171 261.3 132.382C250.637 137.99 239.571 139.993 228.505 138.591C219.451 137.39 212.409 133.384 207.982 126.775C201.544 116.961 200.941 106.346 206.373 95.732C210.196 88.1213 216.231 82.5135 220.054 79.7096C219.25 77.1061 218.042 72.7002 217.439 69.4961C188.265 90.525 191.283 118.964 200.136 132.382C206.775 142.397 220.256 148.605 235.145 148.605C239.168 148.605 243.192 148.204 247.216 147.203C272.97 142.196 292.487 126.975 303.552 104.344V104.344ZM338.963 79.5098C323.672 61.685 301.138 51.8717 275.384 51.8717H272.165C270.354 48.2668 266.531 45.8631 262.306 45.8631H261.904C255.667 46.0635 250.839 51.2705 251.039 57.4795C251.241 63.4875 256.27 68.2943 262.306 68.2943H262.708C267.135 68.0939 270.958 65.29 272.567 61.4846H276.189C291.48 61.4846 305.966 65.8906 319.045 74.5027C329.105 81.1119 336.348 89.724 340.372 100.138C343.792 108.55 343.591 116.761 339.969 123.771C334.336 134.385 324.88 140.193 312.405 140.193C304.357 140.193 296.712 137.79 292.687 135.987C290.474 137.99 286.45 141.194 283.633 143.198C292.285 147.203 301.138 149.406 309.588 149.406C328.903 149.406 343.189 138.791 348.621 128.177C354.456 116.56 354.053 96.533 338.963 79.5098V79.5098ZM236.754 107.748C236.955 113.757 241.985 118.563 248.021 118.563H248.424C254.661 118.363 259.489 113.155 259.288 106.947C259.087 100.938 254.057 96.1322 248.021 96.1322H247.619C247.216 96.1322 246.612 96.1322 246.211 96.332C237.961 82.7133 234.541 67.8934 235.749 51.8711C236.553 39.8545 240.577 29.44 247.619 20.8279C253.454 13.4176 264.721 9.81271 272.367 9.61291C293.693 9.21209 302.747 35.6484 303.351 46.2633C305.966 46.8639 310.393 48.2662 313.411 49.2676C310.996 16.8234 290.876 0 271.562 0C253.454 0 236.754 13.018 230.114 32.2445C220.859 57.8797 226.895 82.5135 238.162 101.94C237.157 103.342 236.553 105.545 236.754 107.749V107.748Z" fill="#48E3FF"/>
</g>
<defs>
<clipPath id="clip0_153_1716">
<rect width="168" height="150" fill="white"/>
</clipPath>
<clipPath id="clip1_153_1716">
<rect width="158.108" height="150" fill="white" transform="translate(194)"/>
</clipPath>
</defs>
</svg>
